<?xml version="1.0" encoding="UTF-8"?>
<svg width="32px" height="20px" viewBox="0 0 32 20" version="1.1" xmlns="http://www.w3.org/2000/svg" xmlns:xlink="http://www.w3.org/1999/xlink">
    <!-- Generator: Sketch 48.2 (47327) - http://www.bohemiancoding.com/sketch -->
    <title>03_item/logo/32x20/black</title>
    <desc>Created with Sketch.</desc>
    <defs></defs>
    <g id="03_item" stroke="none" stroke-width="1" fill="none" fill-rule="evenodd">
        <g id="03_item/logo/32x20/black" fill="#212529">
            <path d="M31.5861465,14.7101108 C31.5704413,14.6784476 31.5568584,14.6455008 31.5403043,14.6142655 C31.5241746,14.5826024 31.5105917,14.5496556 31.4936131,14.5184203 C31.4779079,14.487185 31.464325,14.4538103 31.4477709,14.4230029 C31.4316412,14.3913397 31.4180583,14.3583929 31.4010797,14.3271576 C31.3853745,14.2954944 31.3717916,14.2625476 31.3552375,14.2317402 C31.3391078,14.200077 31.3255249,14.1667023 31.3089708,14.1358949 C31.2932656,14.1042317 31.2792582,14.0712849 31.2622796,14.0404775 C31.2465744,14.0083865 31.2329916,13.9754396 31.2164374,13.9446322 C31.2007322,13.9129691 31.1871493,13.8800222 31.1701707,13.848787 C31.154041,13.8171238 31.1404582,13.784177 31.1234796,13.7529417 C31.1077743,13.7212785 31.0946159,13.6883317 31.0776373,13.6575243 C31.0619321,13.6258611 31.0479248,13.5929143 31.0313706,13.561679 C31.015241,13.5300158 31.0016581,13.497069 30.9851039,13.4662616 C30.9693987,13.4345984 30.9558158,13.4012237 30.9388372,13.3704163 C30.923132,13.3387532 30.9091247,13.3058063 30.8925705,13.274571 C30.8768653,13.2429079 30.8632824,13.2099611 30.8463038,13.1791537 C30.8305986,13.1474905 30.8170157,13.1145437 30.8000371,13.0833084 C30.7839075,13.0516452 30.770749,13.0186984 30.7537704,12.987891 C30.7380652,12.9557999 30.7244824,12.9228531 30.7075037,12.8916178 C30.6917985,12.8603825 30.6782157,12.8274357 30.6612371,12.7962004 C30.6455318,12.7645372 30.631949,12.7315904 30.6149704,12.700783 C30.5992651,12.668692 30.5856823,12.6357452 30.5691281,12.6049377 C30.552574,12.5732746 30.5394156,12.5403278 30.522437,12.5090925 C30.5067318,12.4774293 30.4931489,12.4444825 30.4765947,12.4136751 C30.4604651,12.3820119 30.4468822,12.3486372 30.4299036,12.3178298 C30.4141984,12.2861666 30.4006155,12.2532198 30.3840613,12.2224124 C30.3679317,12.1903213 30.3543488,12.1573745 30.3377946,12.1261392 C30.321665,12.0949039 30.3080821,12.0619571 30.2911035,12.0307218 C30.2753983,11.9990587 30.2618154,11.9661118 30.2452612,11.9353044 C30.229556,11.9032134 30.2155487,11.8702666 30.1985701,11.8394592 C30.1828649,11.807796 30.169282,11.7748492 30.1527279,11.7436139 C30.1365982,11.7119507 30.1234398,11.6790039 30.1064612,11.6477686 C30.0907559,11.6165333 30.0767486,11.5831586 30.0601945,11.5523512 C30.0440648,11.520688 30.0309064,11.4877412 30.0139278,11.4565059 C29.9982226,11.4248428 29.9846397,11.3918959 29.9676611,11.3610885 C29.9515314,11.3294254 29.9379485,11.2960507 29.9213944,11.2652433 C29.9052647,11.2335801 29.8921063,11.2006333 29.8751277,11.1698259 C29.8594225,11.1377348 29.8454151,11.104788 29.828861,11.0739806 C29.8127313,11.0423174 29.7995729,11.0093706 29.7825943,10.9781353 C29.7668891,10.9464721 29.7533062,10.9135253 29.7363276,10.88229 C29.7201979,10.8506268 29.706615,10.81768 29.6900609,10.7868726 C29.6743557,10.7552094 29.6607728,10.7222626 29.6437942,10.6910273 C29.628089,10.6593642 29.6140816,10.6264174 29.5975275,10.5951821 C29.5818223,10.5639468 29.5682394,10.5305721 29.5512608,10.4997647 C29.5355556,10.4681015 29.5219727,10.4351547 29.5054186,10.4039194 C29.4892889,10.3722562 29.475706,10.3393094 29.4587274,10.3080741 C29.4430222,10.2768388 29.4294393,10.243892 29.4128852,10.2126567 C29.3967555,10.1809935 29.3831726,10.1480467 29.3666185,10.1168114 C29.3504888,10.0851483 29.3369059,10.0522014 29.3199273,10.021394 C29.3042221,9.98973086 29.2906392,9.95678405 29.2740851,9.92554876 C29.2579554,9.89388558 29.2443725,9.86093877 29.2273939,9.82970348 C29.2116887,9.79846819 29.1981058,9.76509349 29.1815517,9.73428608 C29.165422,9.70262291 29.1522636,9.66967609 29.135285,9.6384408 C29.1191553,9.60677763 29.1055724,9.57383082 29.0885938,9.54259552 C29.0728886,9.51136023 29.0593057,9.47798554 29.0427516,9.44717813 C29.0270464,9.41551495 29.013039,9.38256814 28.9960604,9.35133285 C28.9803552,9.31966968 28.9667723,9.28672286 28.9502182,9.25548757 C28.9340885,9.22425228 28.9209301,9.19130546 28.9039515,9.16007017 C28.8882463,9.128407 28.8742389,9.09546019 28.8576848,9.06422489 C28.8415551,9.03256172 28.8283967,8.99961491 28.8114181,8.9688075 C28.7957129,8.93714432 28.78213,8.90419751 28.7651514,8.87296222 C28.7490217,8.84129905 28.7358633,8.80835223 28.7188847,8.77711694 C28.7031795,8.74588165 28.6895966,8.71250695 28.672618,8.68169954 C28.6569128,8.65003637 28.6429055,8.61708956 28.6263513,8.58585426 C28.6106461,8.55419109 28.5970632,8.52124428 28.5800846,8.49000899 C28.5643794,8.45877369 28.5507965,8.425399 28.5342424,8.39459159 C28.5176883,8.36292842 28.5045298,8.3299816 28.4875512,8.29874631 C28.471846,8.26708314 28.4582631,8.23413632 28.4412845,8.20290103 C28.4255793,8.17166574 28.4119964,8.13871893 28.3950178,8.10748363 C28.3793126,8.07582046 28.3657297,8.04287365 28.3487511,8.01163836 C28.3330459,7.97997518 28.3194631,7.94702837 28.3029089,7.91622096 C28.2872037,7.88455779 28.2731964,7.85161097 28.2562178,7.82037568 C28.2405125,7.78871251 28.2269297,7.75576569 28.2103755,7.7245304 C28.1942458,7.69329511 28.1810874,7.65992041 28.1636844,7.629113 C28.1479791,7.59744983 28.1343963,7.56450302 28.1178421,7.53326772 C28.1017125,7.50160455 28.088554,7.46865774 28.0715754,7.43742245 C28.0558702,7.40618716 28.0418629,7.37324034 28.0248843,7.34200505 C28.0091791,7.31034188 27.9955962,7.27739506 27.979042,7.24615977 C27.9633368,7.2144966 27.9497539,7.18154978 27.9327753,7.15074237 C27.9166457,7.1190792 27.9030628,7.08613239 27.8865086,7.05489709 C27.870379,7.02323392 27.8572205,6.99028711 27.8402419,6.95905182 C27.8245367,6.92781652 27.8105294,6.89444183 27.7939752,6.86363442 C27.7778456,6.83197125 27.7642627,6.79902443 27.7477086,6.76778914 C27.7320033,6.73612597 27.7184205,6.70317915 27.7014419,6.67194386 C27.6857366,6.64070857 27.6717293,6.60733388 27.6551752,6.57652646 C27.6390455,6.54486329 27.6258871,6.51191648 27.6089085,6.48068119 C27.5932033,6.44901801 27.5796204,6.4160712 27.5626418,6.38483591 C27.5465121,6.35360062 27.5333537,6.3206538 27.5163751,6.28941851 C27.5006699,6.25775534 27.487087,6.22480852 27.4705328,6.19357323 C27.4544032,6.16191006 27.4408203,6.12896325 27.4238417,6.09815583 C27.4081365,6.06649266 27.3945536,6.03354585 27.377575,6.00231056 C27.3618698,5.97064738 27.3482869,5.93770057 27.3317327,5.90646528 C27.3156031,5.87522999 27.3020202,5.84185529 27.2850416,5.81104788 C27.2693364,5.77938471 27.2557535,5.74643789 27.2391994,5.7152026 C27.2230697,5.68353943 27.2094868,5.65059261 27.1925082,5.61935732 C27.176803,5.58812203 27.1632201,5.55517522 27.1462415,5.52393993 C27.1305363,5.49227675 27.1173779,5.45932994 27.1003993,5.42809465 C27.0846941,5.39643147 27.0706867,5.36348466 27.0537081,5.33224937 C27.0380029,5.30101408 27.02442,5.26806726 27.0078659,5.23683197 C26.9921607,5.2051688 26.9785778,5.17222198 26.9611747,5.14098669 C26.9454695,5.10932352 26.9318866,5.07637671 26.9153325,5.0455693 C26.8992028,5.01390612 26.8860444,4.98095931 26.8690658,4.94972402 C26.8533606,4.91806084 26.8393532,4.88511403 26.8227991,4.85387874 C26.8066694,4.82264345 26.7930865,4.78926875 26.7765324,4.75846134 C26.7608272,4.72637029 26.7472443,4.69385135 26.7302657,4.66261606 C26.714136,4.63095289 26.7005531,4.59800608 26.683999,4.56677078 C26.6682938,4.53553549 26.6547109,4.50258868 26.6377323,4.47135339 C26.6220271,4.43969021 26.6080197,4.4067434 26.5914656,4.37550811 C26.5753359,4.34384494 26.5621775,4.31089812 26.5451989,4.28009071 C26.5294937,4.24799966 26.5159108,4.21548072 26.4993567,4.18424543 C26.483227,4.15258226 26.4696441,4.11963545 26.4526655,4.08840015 C26.4369603,4.05716486 26.4233774,4.02379017 26.4063988,3.99298276 C26.3906936,3.96131958 26.3771107,3.92837277 26.3601321,3.89713748 C26.3440024,3.86547431 26.330844,3.83252749 26.3138654,3.8012922 C26.2981602,3.77005691 26.2845773,3.73668221 26.2680232,3.7058748 C26.252318,3.67421163 26.2383106,3.64126482 26.221332,3.61002952 C26.2056268,3.57836635 26.1920439,3.54541954 26.1750653,3.51418425 C26.1593601,3.48252107 26.1457772,3.45000214 26.1292231,3.41876685 C26.1130934,3.38710368 26.0995105,3.35415686 26.0825319,3.32292157 C26.0668267,3.2912584 26.0532438,3.25831158 26.0366897,3.22750417 C26.0209845,3.195841 26.0069771,3.16289419 25.9899985,3.13165889 C25.9742933,3.09999572 25.9607104,3.06704891 25.9441563,3.03581362 C25.9280266,3.00457832 25.9148682,2.97120363 25.8978896,2.94039622 C25.8821844,2.90873305 25.8681771,2.87578623 25.8516229,2.84455094 C25.8354932,2.81288777 25.8223348,2.77994095 25.8053562,2.74870566 C25.789651,2.71747037 25.7760681,2.68452355 25.7586651,2.65328826 C25.7429598,2.62162509 25.729377,2.58867828 25.7128228,2.55744298 C25.6971176,2.52577981 25.6835347,2.492833 25.6665561,2.46202559 C25.6508509,2.43036241 25.6368436,2.3974156 25.6202894,2.36618031 C25.6041598,2.33451714 25.5910013,2.30157032 25.5740227,2.27033503 C25.5583175,2.23867186 25.5447346,2.20572504 25.5281805,2.17491763 C25.5116264,2.14325446 25.4984679,2.11030765 25.4814893,2.07907235 C25.4657841,2.04740918 25.4522012,2.01446237 25.4356471,1.98322708 C25.4195174,1.95199178 25.4055101,1.91861709 25.3889559,1.88780968 C24.8278131,0.76847375 23.6800594,0 22.3510592,0 C20.4706787,0 18.9464245,1.53651962 18.9464245,3.43245903 C18.9464245,4.02635745 19.0958363,4.58516965 19.3594291,5.07252578 C19.3751343,5.10418895 19.3891417,5.13713577 19.4061203,5.16837106 C19.4218255,5.20003423 19.4354083,5.23298104 19.4519625,5.26378846 C19.4680922,5.29587951 19.4812506,5.32882632 19.4982292,5.35963373 C19.5143589,5.39129691 19.5279417,5.42424372 19.5444959,5.45547901 C19.5606256,5.48714218 19.573784,5.51966112 19.5907626,5.55089641 C19.6064678,5.58255958 19.6204751,5.6155064 19.6374537,5.64674169 C19.6531589,5.67840486 19.6667418,5.71135168 19.683296,5.74258697 C19.6994256,5.77425014 19.7125841,5.80719695 19.7295627,5.83800436 C19.7452679,5.86966754 19.7592752,5.90304223 19.7758294,5.93384964 C19.791959,5.96551282 19.8051175,5.99845963 19.8220961,6.02926704 C19.8378013,6.06093021 19.8513842,6.09387703 19.8683628,6.12511232 C19.8844924,6.15677549 19.8980753,6.18972231 19.9146295,6.2209576 C19.9303347,6.25262077 19.9439175,6.28556758 19.9608962,6.31637499 C19.9766014,6.34846605 19.9906087,6.38098498 20.0071628,6.41222027 C20.0228681,6.44388345 20.0364509,6.47683026 20.0534295,6.50806555 C20.0691348,6.53972872 20.0827176,6.57267554 20.0992718,6.60391083 C20.1158259,6.63514612 20.1289843,6.66852082 20.1459629,6.69932823 C20.1616681,6.7309914 20.175251,6.76393821 20.1918052,6.79474562 C20.2079348,6.82683668 20.2215177,6.85935561 20.2384963,6.8905909 C20.2542015,6.92225408 20.2677844,6.95520089 20.284763,6.98643618 C20.3004682,7.01809935 20.3140511,7.05104617 20.3306053,7.08185358 C20.3467349,7.11394463 20.3603178,7.14646357 20.3772964,7.17769886 C20.3930016,7.20936203 20.4065845,7.24230884 20.4231387,7.27354414 C20.4392683,7.30520731 20.4528512,7.33815412 20.4698298,7.36938941 C20.485535,7.40062471 20.4991179,7.4339994 20.515672,7.46480681 C20.5318017,7.49646998 20.5453846,7.5294168 20.5619387,7.56065209 C20.577644,7.59231526 20.5916513,7.6248342 20.6082054,7.65606949 C20.6243351,7.68773266 20.637918,7.72067947 20.6544721,7.75191477 C20.6701773,7.78357794 20.6837602,7.81652475 20.7007388,7.84776004 C20.7168685,7.87942322 20.7304514,7.91237003 20.7470055,7.94317744 C20.7631352,7.97484061 20.7762936,8.00778743 20.7932722,8.03902272 C20.8089774,8.07068589 20.8229848,8.10363271 20.8395389,8.13444012 C20.8556686,8.16653117 20.868827,8.19947799 20.8858056,8.2302854 C20.9015108,8.26194857 20.9150937,8.29489538 20.9320723,8.32613067 C20.948202,8.35779385 20.9617849,8.39031278 20.978339,8.42154807 C20.9940442,8.45321124 21.0076271,8.48615806 21.0246057,8.51739335 C21.0403109,8.54905652 21.0543183,8.58200334 21.0708724,8.61323863 C21.0870021,8.6449018 21.1001605,8.67784862 21.1171391,8.70865603 C21.1328443,8.7403192 21.1464272,8.77326601 21.1629813,8.80450131 C21.179111,8.83616448 21.1926939,8.86911129 21.2096725,8.8999187 C21.2253777,8.93200976 21.2389606,8.96495657 21.2559392,8.99576398 C21.2716444,9.02742715 21.2852273,9.06037397 21.3017814,9.09160926 C21.3179111,9.12327243 21.331494,9.15621925 21.3484726,9.18702666 C21.3641778,9.21911771 21.3777607,9.25163664 21.3943148,9.28287194 C21.41002,9.31453511 21.4240274,9.34748192 21.441006,9.37871721 C21.4567112,9.41038039 21.4702941,9.4433272 21.4868482,9.47456249 C21.5029779,9.50579778 21.5161363,9.53917248 21.5331149,9.56997989 C21.5492446,9.60164306 21.5628275,9.63458988 21.5798061,9.66539729 C21.5955113,9.69748834 21.6090942,9.73000727 21.6256483,9.76124257 C21.6413535,9.79290574 21.6553609,9.82585255 21.6723395,9.85708784 C21.6880447,9.88875102 21.7016276,9.92169783 21.7181817,9.95250524 C21.7343114,9.98459629 21.7474698,10.0171152 21.7644484,10.0483505 C21.7801536,10.0800137 21.794161,10.1129605 21.8107151,10.1441958 C21.8268448,10.175859 21.8404276,10.2088058 21.8569818,10.2400411 C21.872687,10.2712764 21.8862699,10.3046511 21.9032485,10.3354585 C21.9193782,10.3671216 21.932961,10.4000685 21.9495152,10.4313038 C21.9652204,10.4629669 21.9788033,10.4954859 21.9957819,10.5267212 C22.0114871,10.5583843 22.0254944,10.5913311 22.0420486,10.6225664 C22.0581782,10.6542296 22.0713367,10.6871764 22.0883153,10.7184117 C22.1040205,10.7500749 22.1176034,10.7830217 22.1341575,10.8138291 C22.1507116,10.8454923 22.1638701,10.8784391 22.1808487,10.9096744 C22.1965539,10.9413376 22.2101368,10.9742844 22.2266909,11.0050918 C22.2428206,11.0371828 22.2568279,11.0701296 22.2733821,11.1009371 C22.2890873,11.1326002 22.3026702,11.165547 22.3196488,11.1967823 C22.335354,11.2284455 22.3489368,11.2609644 22.365491,11.2921997 C22.3816207,11.3238629 22.3952035,11.3568097 22.4121821,11.388045 C22.4278874,11.4197082 22.4414702,11.452655 22.4584488,11.4838903 C22.4741541,11.5155535 22.4873125,11.5485003 22.5042911,11.5793077 C22.5204208,11.6109709 22.5340036,11.6439177 22.5509822,11.675153 C22.5666874,11.7068161 22.5802703,11.739763 22.5968245,11.7705704 C22.6125297,11.8026614 22.626537,11.8356082 22.6435156,11.8664156 C22.6592208,11.8980788 22.6728037,11.9310256 22.6893579,11.9622609 C22.7054875,11.9939241 22.718646,12.0268709 22.7356246,12.0576783 C22.7517542,12.0893415 22.7653371,12.1227162 22.7818913,12.1535236 C22.7980209,12.1851868 22.8111793,12.2181336 22.828158,12.2493689 C22.8438632,12.281032 22.8578705,12.3139789 22.8748491,12.3452142 C22.8905543,12.3764494 22.9041372,12.4098241 22.9206913,12.4406316 C22.9363966,12.4722947 22.9499794,12.5052415 22.966958,12.5360489 C22.9826633,12.56814 22.9966706,12.6006589 23.0132247,12.6318942 C23.0289299,12.6635574 23.0425128,12.6965042 23.0594914,12.7277395 C23.0751966,12.7594027 23.0887795,12.7923495 23.1057581,12.8231569 C23.1218878,12.855248 23.1350462,12.8881948 23.1520248,12.9190022 C23.16773,12.9506654 23.1813129,12.9836122 23.1982915,13.0148475 C23.2139967,13.0465106 23.2280041,13.0794574 23.2445582,13.1106927 C23.2606879,13.141928 23.2738463,13.1753027 23.2908249,13.2061101 C23.3065301,13.2377733 23.320113,13.2707201 23.3366672,13.3015275 C23.3527968,13.3336186 23.3663797,13.3665654 23.3833583,13.3973728 C23.3990635,13.429036 23.4126464,13.4619828 23.4292005,13.4932181 C23.4453302,13.5248813 23.4589131,13.5578281 23.4758917,13.5890634 C23.4915969,13.6207265 23.5051798,13.6536734 23.5221584,13.6844808 C23.5378636,13.7161439 23.551022,13.7490908 23.5680006,13.780326 C23.5837058,13.8119892 23.5977132,13.844936 23.6146918,13.8757434 C23.630397,13.9078345 23.6439799,13.9407813 23.660534,13.9715887 C23.6766637,14.0032519 23.6898221,14.0361987 23.7072252,14.067434 C23.7229304,14.0990972 23.7365133,14.132044 23.7530674,14.1628514 C23.7691971,14.1945146 23.7823555,14.2278893 23.7993341,14.2586967 C23.8150393,14.2903598 23.8290467,14.3233067 23.8460253,14.354542 C23.8617305,14.3862051 23.8753134,14.4191519 23.8918675,14.4499594 C23.9075727,14.4816225 23.9211556,14.5145693 23.9381342,14.5458046 C23.9542639,14.5774678 23.9678468,14.6104146 23.9844009,14.641222 C24.0005306,14.6733131 24.013689,14.7062599 24.0306676,14.7370673 C24.0463728,14.7687305 24.0603802,14.8016773 24.0769343,14.8329126 C24.093064,14.8645758 24.1062224,14.8975226 24.123201,14.92833 C24.1389062,14.9599932 24.1524891,14.9933678 24.1690432,15.0241753 C24.1851729,15.0558384 24.1991803,15.0887852 24.2157344,15.1200205 C24.2314396,15.1516837 24.2450225,15.1846305 24.2620011,15.2158658 C24.2777063,15.2471011 24.2912892,15.2804758 24.3082678,15.3112832 C24.3243975,15.3429464 24.3375559,15.3758932 24.3545345,15.4067006 C24.3702397,15.4387917 24.3838226,15.4717385 24.4003767,15.5025459 C24.4165064,15.5342091 24.4300893,15.5671559 24.4470679,15.5983912 C24.4627731,15.6300543 24.476356,15.6630012 24.4929101,15.6938086 C24.5090398,15.7258996 24.5226227,15.7588464 24.5391768,15.7896538 C24.5553065,15.821317 24.5688894,15.8542638 24.585868,15.8854991 C24.6015732,15.9171623 24.6151561,15.9501091 24.6317102,15.9813444 C24.6478399,16.0125797 24.6614228,16.0459544 24.6784014,16.0767618 C24.6941066,16.108425 24.7076895,16.1413718 24.7242436,16.1721792 C24.7403733,16.2042702 24.7535317,16.2372171 24.7705103,16.2680245 C24.7862155,16.2996876 24.8002228,16.3326345 24.8172014,16.3638698 C24.8329067,16.3955329 24.8464895,16.4284797 24.8630437,16.459715 C24.8787489,16.4913782 24.8923318,16.524325 24.9097348,16.5551324 C24.9254401,16.5867956 24.9390229,16.6197424 24.9555771,16.6509777 C24.9712823,16.6826409 24.9848652,16.7155877 25.0018438,16.7463951 C25.017549,16.7780583 25.0315563,16.811433 25.0481105,16.8422404 C25.0642401,16.8739036 25.0773986,16.9068504 25.0943772,16.9380857 C25.1100824,16.9697488 25.1236653,17.0026956 25.1406439,17.0335031 C25.1567735,17.0651662 25.169932,17.0985409 25.1869106,17.1293483 C25.2026158,17.1610115 25.2161986,17.1939583 25.2331773,17.2251936 C25.2488825,17.2568568 25.2628898,17.2898036 25.279444,17.320611 C25.2951492,17.3522742 25.308732,17.385221 25.3257106,17.4164563 C25.3414159,17.4481195 25.3549987,17.4810663 25.3715529,17.5118737 C25.3876826,17.5439647 25.4016899,17.5769116 25.418244,17.607719 C25.4339492,17.6393821 25.4475321,17.672329 25.4645107,17.7035642 C25.4802159,17.7352274 25.4937988,17.7681742 25.5107774,17.7989816 C25.5264826,17.8306448 25.5400655,17.8640195 25.5570441,17.8948269 C26.1177625,19.013735 27.2659407,19.7826366 28.5945164,19.7826366 C30.4753213,19.7826366 32,18.246117 32,16.3501776 C32,15.7562791 31.8497394,15.1974669 31.5861465,14.7101108 M19.014339,14.5346797 C18.9867487,14.4769158 18.9612808,14.4178683 18.9311438,14.3622438 C18.9035536,14.3044799 18.8780857,14.2458603 18.8475242,14.1898079 C18.8203584,14.132044 18.794466,14.0738522 18.764329,14.0177998 C18.7371632,13.9600359 18.7112709,13.9014163 18.6811339,13.8453639 C18.6539681,13.7876 18.6285002,13.7294082 18.5975142,13.6733559 C18.5707729,13.615592 18.5448806,13.5569723 18.5147435,13.5009199 C18.4875778,13.443156 18.4616854,13.3845364 18.4315484,13.328484 C18.4039581,13.271148 18.3784902,13.2125283 18.3483532,13.156476 C18.320763,13.0987121 18.2952951,13.0400924 18.2647336,12.98404 C18.2375678,12.926704 18.2116754,12.8676565 18.1815384,12.812032 C18.1539482,12.7542681 18.1289047,12.6956485 18.0987677,12.640024 C18.0711775,12.5822601 18.0457096,12.5236404 18.0151481,12.467588 C17.9879823,12.4098241 17.96209,12.3512045 17.9319529,12.2951521 C17.9047872,12.2378161 17.8788948,12.1787686 17.8487578,12.1231441 C17.8211675,12.0653802 17.7956996,12.0067605 17.7651382,11.9507081 C17.7379724,11.8933721 17.71208,11.8343246 17.681943,11.7787001 C17.6552017,11.7209362 17.6293093,11.6623165 17.5987478,11.6062642 C17.5715821,11.5485003 17.5461142,11.4898806 17.5159771,11.4342561 C17.4883869,11.3764922 17.462919,11.3178726 17.4323575,11.2618202 C17.4051917,11.2040563 17.3792994,11.1454367 17.3491623,11.0898122 C17.3219966,11.0320483 17.2961042,10.9734286 17.2659672,10.9173762 C17.238377,10.8596123 17.212909,10.8009927 17.1823476,10.7449403 C17.1551818,10.6876043 17.1297139,10.6285568 17.0991524,10.5729323 C17.0724111,10.5151684 17.0465187,10.4565487 17.0163817,10.4009242 C16.9887915,10.3427324 16.9633236,10.2841128 16.9331865,10.2284883 C16.9055963,10.1707244 16.8801284,10.1121047 16.8495669,10.0564803 C16.8224011,9.99871636 16.7965088,9.9400967 16.7663718,9.88404433 C16.7387815,9.82628043 16.7133136,9.76766078 16.6831766,9.7116084 C16.6560108,9.65384451 16.6305429,9.59522485 16.5999814,9.53960036 C16.5728157,9.48183646 16.5469233,9.42321681 16.5167863,9.36716443 C16.4896205,9.30940054 16.4637281,9.25078088 16.4335911,9.19472851 C16.4060009,9.13739249 16.380533,9.07877284 16.3499715,9.02272047 C16.3228057,8.96495657 16.2969133,8.90633691 16.2667763,8.85071242 C16.2396106,8.79252065 16.2141426,8.73432887 16.1840056,8.6782765 C16.1564154,8.6205126 16.1309475,8.56189294 16.1008105,8.50584057 C16.0732202,8.44807668 16.0477523,8.3898849 16.0171908,8.33383253 C15.9900251,8.27606863 15.9641327,8.21744898 15.9339957,8.16182448 C15.9068299,8.10406059 15.8809375,8.04501305 15.8508005,7.98938856 C15.8232103,7.93162466 15.7977424,7.87300501 15.7671809,7.81695263 C15.7400151,7.75918874 15.7141228,7.70056908 15.6839857,7.64494459 C15.6572444,7.58718069 15.6313521,7.52856104 15.6007906,7.47250866 C15.5736248,7.41474477 15.5481569,7.35612511 15.5180199,7.30050062 C15.4904296,7.24273673 15.4649617,7.18411707 15.4344002,7.1280647 C15.4072345,7.0703008 15.3813421,7.01168114 15.3512051,6.95562877 C15.3236149,6.89829276 15.2981469,6.8396731 15.2680099,6.78362073 C15.2408442,6.72585683 15.2153762,6.66723717 15.1843903,6.6111848 C15.157649,6.55384879 15.1317566,6.49480125 15.1016196,6.43917676 C15.0744538,6.38141286 15.0485615,6.32279321 15.0184244,6.26716871 C14.9908342,6.20897694 14.9653663,6.15078516 14.9348048,6.09473279 C14.907639,6.03696889 14.8817467,5.97834924 14.8516097,5.92229686 C14.8244439,5.86496085 14.7985515,5.80591331 14.7684145,5.75028882 C14.7412487,5.69252492 14.7157808,5.63390527 14.6852193,5.57785289 C14.6580536,5.520089 14.6325857,5.46146934 14.6020242,5.40584485 C14.5748584,5.34808096 14.548966,5.2894613 14.518829,5.23340893 C14.4916632,5.17564503 14.4657709,5.11745325 14.4356338,5.06140088 C14.4080436,5.00363699 14.3825757,4.94501733 14.3520142,4.88896496 C14.3248485,4.83120106 14.2989561,4.7725814 14.2688191,4.71695691 C14.2420778,4.65919302 14.2161854,4.60057336 14.1860484,4.54452099 C14.1584581,4.48675709 14.1329902,4.42813744 14.1028532,4.37208506 C14.075263,4.31474905 14.0497951,4.25570151 14.0192336,4.20007702 C13.9920678,4.14231312 13.9661754,4.08369347 13.9360384,4.02806897 C13.9088726,3.9698772 13.8829803,3.91168542 13.8528433,3.85563305 C13.825253,3.79786915 13.8002096,3.7392495 13.7692236,3.68319712 C13.7424823,3.62543323 13.71659,3.56724145 13.6864529,3.51118908 C13.6592872,3.45342519 13.6333948,3.39480553 13.6032578,3.33875316 C13.5756675,3.28098926 13.5501996,3.2223696 13.5196381,3.16674511 C13.4924724,3.10898122 13.46658,3.05036156 13.436443,2.99430919 C13.4092772,2.93654529 13.3833848,2.87792563 13.3532478,2.82187326 C13.3256576,2.76453725 13.3006141,2.70591759 13.2704771,2.64986522 C13.2428869,2.59210132 13.217419,2.53348167 13.1868575,2.47785717 C13.1596917,2.4196654 13.1337994,2.36147362 13.1036623,2.30542125 C13.0764966,2.24765735 13.0506042,2.1890377 13.0204672,2.13298532 C12.9928769,2.07522143 12.967409,2.01660177 12.9368476,1.96097728 C12.3901365,0.802704206 11.2215841,0 9.86414464,0 C7.98376421,0 6.45951001,1.53651962 6.45951001,3.43245903 C6.45951001,4.02764109 6.60977066,4.58773694 6.87463688,5.07594883 C6.90222712,5.13371272 6.92769502,5.19233238 6.95825651,5.24838475 C6.98499781,5.30572077 7.01089018,5.36434042 7.04102721,5.42039279 C7.06819297,5.47815669 7.09408534,5.53677635 7.12422237,5.59240084 C7.1518126,5.65059261 7.17728051,5.70878439 7.20741753,5.76483676 C7.23500776,5.82260066 7.26047567,5.88122032 7.29103715,5.93727269 C7.31820292,5.9946087 7.34409529,6.05365624 7.37423232,6.10928073 C7.40139808,6.16704463 7.42686599,6.22566428 7.45742748,6.28171666 C7.48459324,6.33948055 7.51006115,6.39810021 7.5410471,6.45415258 C7.5677884,6.5114886 7.59368078,6.57010825 7.6238178,6.62616063 C7.65098357,6.68392452 7.67687594,6.7421163 7.70701296,6.79816867 C7.73460319,6.85593257 7.7600711,6.91455222 7.79020812,6.9706046 C7.81779835,7.02836849 7.84326626,7.08698815 7.87382775,7.14261264 C7.90099351,7.20037654 7.92646142,7.25899619 7.95702291,7.31504856 C7.98418867,7.37281246 8.00965658,7.43143212 8.0397936,7.48748449 C8.06738384,7.5448205 8.09285174,7.60344016 8.12341323,7.65949253 C8.150579,7.71725643 8.17647137,7.77587609 8.20660839,7.83192846 C8.23377416,7.88969235 8.25966653,7.94831201 8.28980355,8.0039365 C8.31739378,8.0617004 8.34286169,8.12032005 8.37299871,8.17594455 C8.40016448,8.23370844 8.42605685,8.2923281 8.45661834,8.34838047 C8.48335964,8.40614437 8.50925201,8.46476402 8.5398135,8.5208164 C8.56697927,8.57858029 8.59244717,8.63719995 8.6225842,8.69282444 C8.65017443,8.75058834 8.67564234,8.80920799 8.70620382,8.86526037 C8.73336959,8.92302426 8.75926196,8.98164392 8.78939898,9.03726841 C8.81656475,9.0950323 8.84245712,9.15407984 8.87259415,9.20970433 C8.90018438,9.26746823 8.92565228,9.32608789 8.95621377,9.38171238 C8.98295507,9.43990415 9.00884744,9.49809593 9.03898447,9.5541483 C9.06615023,9.6119122 9.09204261,9.67053186 9.12217963,9.72658423 C9.14976986,9.78434812 9.17523777,9.84296778 9.20537479,9.89859227 C9.23296502,9.95635617 9.25843293,10.0149758 9.28899442,10.0706003 C9.31616018,10.1283642 9.34205255,10.1874117 9.37218958,10.2430362 C9.39935534,10.3008001 9.42482325,10.3594198 9.45496027,10.4150443 C9.4825505,10.4732361 9.50801841,10.5318557 9.5385799,10.5879081 C9.56574567,10.6452441 9.59163804,10.7038638 9.62177506,10.7599161 C9.64894083,10.81768 9.6748332,10.8762997 9.70497022,10.9319242 C9.73256045,10.9896881 9.75802836,11.0483077 9.78816538,11.1043601 C9.81575561,11.162124 9.84122352,11.2207437 9.87178501,11.276796 C9.89895078,11.334132 9.92441868,11.3927517 9.9545557,11.4488041 C9.98214594,11.506568 10.0076138,11.5651876 10.0377509,11.62124 C10.0653411,11.6790039 10.090809,11.7371957 10.1213705,11.793248 C10.1485363,11.8510119 10.1744286,11.9096316 10.2045657,11.965684 C10.2317314,12.0234479 10.2576238,12.0816396 10.2877608,12.137692 C10.315351,12.1954559 10.3403945,12.2540756 10.370956,12.3101279 C10.3981217,12.367464 10.4240141,12.4265115 10.4545756,12.482136 C10.4813169,12.5398999 10.5072093,12.5985195 10.5373463,12.6545719 C10.5649365,12.7123358 10.5904044,12.7709555 10.6205415,12.8265799 C10.6481317,12.8843438 10.6735996,12.9429635 10.7041611,12.9990159 C10.7313269,13.0567798 10.7572192,13.1149715 10.7873562,13.1710239 C10.8140975,13.2287878 10.8404144,13.2874075 10.8705514,13.3434598 C10.8977172,13.4012237 10.9231851,13.4598434 10.954171,13.5154679 C10.9809123,13.5732318 11.0068047,13.6318514 11.0369417,13.6879038 C11.0641075,13.7456677 11.0899999,13.8042874 11.1201369,13.8603397 C11.1477271,13.9176758 11.173195,13.9762954 11.2033321,14.0323478 C11.2309223,14.0901117 11.2563902,14.1487313 11.2869517,14.2047837 C11.313693,14.2625476 11.3395854,14.3211673 11.3701468,14.3767918 C11.3973126,14.4345556 11.4227805,14.4931753 11.4529175,14.5492277 C11.4805078,14.6069916 11.5059757,14.6656112 11.5365372,14.7212357 C11.5637029,14.7789996 11.5895953,14.8376193 11.6197323,14.8936716 C11.6468981,14.9514355 11.6727905,15.0100552 11.7029275,15.0656797 C11.7305177,15.1234436 11.7559856,15.1824911 11.7865471,15.2381156 C11.8132884,15.2958795 11.8391808,15.3544992 11.8693178,15.4101237 C11.8964836,15.4678876 11.9223759,15.5265072 11.952513,15.5825596 C11.9801032,15.6403235 12.0055711,15.6989431 12.0357081,15.7545676 C12.0632984,15.8127594 12.0887663,15.8709512 12.1193278,15.9270036 C12.1464935,15.9847674 12.1723859,16.0433871 12.2025229,16.0994395 C12.2296887,16.1572034 12.2555811,16.215823 12.2857181,16.2714475 C12.3128838,16.3292114 12.3383517,16.3878311 12.3689132,16.4434556 C12.396079,16.5016473 12.4219714,16.560267 12.4521084,16.6163194 C12.4792742,16.6736554 12.5051665,16.732275 12.5353036,16.7878995 C12.5628938,16.8460913 12.5883617,16.904711 12.6184987,16.9603355 C12.646089,17.0185272 12.6715569,17.076719 12.7021183,17.1327714 C12.7292841,17.1905353 12.754752,17.2491549 12.7853135,17.3047794 C12.8124793,17.3625433 12.8379472,17.421163 12.8680842,17.4772154 C12.8956744,17.5349792 12.9211423,17.5935989 12.9517038,17.6492234 C12.9788696,17.7069873 13.004762,17.7660348 13.034899,17.8216593 C13.5820345,18.9799324 14.7501625,19.7826366 16.1076019,19.7826366 C17.9884068,19.7826366 19.5130855,18.246117 19.5130855,16.3501776 C19.5130855,15.7545676 19.3619759,15.1948997 19.0971097,14.7066878 C19.0703684,14.6489239 19.044476,14.5903042 19.014339,14.5346797 M7.24137474,16.3501776 C7.24137474,18.3659236 5.62034249,20 3.62068737,20 C1.62103225,20 0,18.3659236 0,16.3501776 C0,14.3344316 1.62103225,12.7003551 3.62068737,12.7003551 C5.62034249,12.7003551 7.24137474,14.3344316 7.24137474,16.3501776" id="logo"></path>
        </g>
    </g>
</svg>