<?xml version="1.0" encoding="UTF-8"?>
<svg width="162px" height="16px" viewBox="0 0 162 16" version="1.1" xmlns="http://www.w3.org/2000/svg" xmlns:xlink="http://www.w3.org/1999/xlink">
    <!-- Generator: Sketch 50.2 (55047) - http://www.bohemiancoding.com/sketch -->
    <title>Fill 1</title>
    <desc>Created with Sketch.</desc>
    <defs></defs>
    <g id="complete" stroke="none" stroke-width="1" fill="none" fill-rule="evenodd">
        <g id="studiomate_landing" transform="translate(-132.000000, -45.000000)" fill="#ffffff">
            <g id="Group-13">
                <path d="M155.756743,60.4614282 L156.000086,60.3432792 C157.341848,59.6895216 157.900634,58.0736937 157.247215,56.7324216 L152.267711,46.518724 C151.613165,45.1774519 149.996516,44.6204639 148.652501,45.2730963 L148.410285,45.3912453 C147.067396,46.0438777 146.50861,47.6608308 147.162029,48.9998525 L152.14266,59.2158005 C152.796079,60.5570726 154.414981,61.1140607 155.756743,60.4614282 Z M145.896875,60.4614282 L146.140217,60.3432792 C147.481979,59.6895216 148.040765,58.0736937 147.387346,56.7324216 L142.406716,46.518724 C141.753297,45.1774519 140.136648,44.6204639 138.792633,45.2730963 L138.550417,45.3912453 C137.206401,46.0438777 136.648742,47.6608308 137.302161,48.9998525 L142.281665,59.2158005 C142.936211,60.5570726 144.555113,61.1140607 145.896875,60.4614282 Z M137.806871,57.5830942 C137.606339,56.3734737 136.630717,55.399026 135.419638,55.1987353 C133.422204,54.8690434 131.710922,56.5793905 132.041011,58.5744203 C132.240417,59.7829155 133.217165,60.7596137 134.427117,60.9587791 C136.425678,61.2895963 138.13696,59.5803744 137.806871,57.5830942 Z M283.880955,59.021136 C283.880955,59.7075252 284.310184,60.1587418 285.019932,60.1587418 L292.310061,60.1587418 C293.106556,60.1587418 293.6,59.6872711 293.6,59.021136 C293.6,58.3538756 293.106556,57.8812797 292.310061,57.8812797 L286.547581,57.8812797 C286.46196,57.8812797 286.418023,57.838521 286.418023,57.7541289 L286.418023,54.0600043 C286.418023,53.9733617 286.46196,53.9294778 286.547581,53.9294778 L291.235299,53.9294778 C292.030668,53.9294778 292.525238,53.4568819 292.525238,52.791872 C292.525238,52.1257368 292.030668,51.6520157 291.235299,51.6520157 L286.547581,51.6520157 C286.46196,51.6520157 286.418023,51.609257 286.418023,51.5248649 L286.418023,47.9590163 C286.418023,47.8723737 286.46196,47.829615 286.547581,47.829615 L292.310061,47.829615 C293.106556,47.829615 293.6,47.3570191 293.6,46.6920092 C293.6,46.0247488 293.106556,45.5521529 292.310061,45.5521529 L285.019932,45.5521529 C284.310184,45.5521529 283.880955,46.0044947 283.880955,46.6920092 L283.880955,59.021136 Z M274.742101,47.829615 C274.827721,47.829615 274.870531,47.8723737 274.870531,47.9578911 L274.870531,58.9356186 C274.870531,59.7514091 275.409039,60.2667637 276.139066,60.2667637 C276.871346,60.2667637 277.408726,59.7514091 277.408726,58.9356186 L277.408726,47.9578911 C277.408726,47.8723737 277.451537,47.829615 277.538284,47.829615 L280.441492,47.829615 C281.236861,47.829615 281.731431,47.3570191 281.731431,46.690884 C281.731431,46.0247488 281.236861,45.5532781 280.441492,45.5532781 L271.838892,45.5532781 C271.043523,45.5532781 270.548953,46.0247488 270.548953,46.690884 C270.548953,47.3570191 271.043523,47.829615 271.838892,47.829615 L274.742101,47.829615 Z M259.001461,58.6126781 C258.957524,58.7409541 258.914714,58.913114 258.914714,59.085274 C258.914714,59.8144219 259.496031,60.2667637 260.140438,60.2667637 C260.699224,60.2667637 261.152111,59.9449484 261.345883,59.3857099 L262.11872,57.109373 L267.711086,57.109373 L268.506455,59.3857099 C268.700228,59.9449484 269.150861,60.2667637 269.709647,60.2667637 C270.356307,60.2667637 270.936498,59.8144219 270.936498,59.085274 C270.936498,58.913114 270.892561,58.7409541 270.849751,58.6126781 L266.635198,46.8855485 C266.312995,45.9819901 265.817298,45.4452562 264.936308,45.4452562 C264.055319,45.4452562 263.582154,45.9819901 263.258824,46.8855485 L259.001461,58.6126781 Z M262.915216,54.8532902 L264.892372,49.1618854 L264.95884,49.1618854 L266.937123,54.8532902 L262.915216,54.8532902 Z M243.64724,59.021136 C243.64724,59.8155472 244.14181,60.2656385 244.829027,60.2656385 C245.495965,60.2656385 245.991662,59.8155472 245.991662,59.021136 L245.991662,51.0095103 L246.097561,51.0095103 L248.785592,57.0654891 C249.174264,57.9476681 249.560682,58.203095 250.183683,58.203095 C250.787533,58.203095 251.172825,57.9476681 251.56037,57.0654891 L254.226995,51.0095103 L254.335147,51.0095103 L254.335147,59.021136 C254.335147,59.8155472 254.828592,60.2656385 255.518061,60.2656385 C256.184999,60.2656385 256.678443,59.8155472 256.678443,59.021136 L256.678443,46.9710658 C256.678443,46.0247488 256.141063,45.4452562 255.281479,45.4452562 C254.52892,45.4452562 254.184185,45.8548393 253.79664,46.7561472 L250.27043,54.8544155 L250.183683,54.8544155 L246.570727,46.7561472 C246.162903,45.8548393 245.818168,45.4452562 245.06561,45.4452562 C244.206026,45.4452562 243.64724,46.0247488 243.64724,46.9710658 L243.64724,59.021136 Z M224.594441,48.8175655 C224.249706,49.8707792 224.164086,50.7293284 224.164086,52.85601 C224.164086,54.9826915 224.249706,55.8412407 224.594441,56.8944544 C225.347,59.1921707 227.195725,60.3950398 229.712515,60.3950398 C232.249583,60.3950398 234.100562,59.1921707 234.851994,56.8944544 C235.196729,55.8412407 235.282349,54.9826915 235.282349,52.85601 C235.282349,50.7293284 235.196729,49.8707792 234.851994,48.8175655 C234.100562,46.5198493 232.249583,45.3169802 229.712515,45.3169802 C227.195725,45.3169802 225.347,46.5198493 224.594441,48.8175655 Z M232.400546,49.50508 C232.615723,50.1284565 232.701344,50.9014884 232.701344,52.85601 C232.701344,54.8116568 232.615723,55.5846887 232.400546,56.2058147 C232.013001,57.3873044 231.153417,58.1187028 229.712515,58.1187028 C228.293018,58.1187028 227.432308,57.3873044 227.044763,56.2058147 C226.830711,55.5846887 226.745091,54.8116568 226.745091,52.85601 C226.745091,50.9014884 226.830711,50.1284565 227.044763,49.50508 C227.432308,48.3247155 228.293018,47.5933171 229.712515,47.5933171 C231.153417,47.5933171 232.013001,48.3247155 232.400546,49.50508 Z M218.616783,58.9356186 C218.616783,59.7502839 219.155291,60.2656385 219.885318,60.2656385 C220.616471,60.2656385 221.154978,59.7502839 221.154978,58.9356186 L221.154978,46.7775266 C221.154978,45.9606108 220.616471,45.444131 219.885318,45.444131 C219.155291,45.444131 218.616783,45.9606108 218.616783,46.7775266 L218.616783,58.9356186 Z M204.961452,59.0425153 C204.961452,59.7300298 205.391807,60.1587418 206.101555,60.1587418 L209.69198,60.1587418 C212.660531,60.1587418 214.467572,59.1055281 215.219004,56.8078118 C215.499524,55.9053787 215.649359,54.9399328 215.649359,52.85601 C215.649359,50.7732123 215.499524,49.805516 215.219004,48.9042081 C214.467572,46.6064918 212.660531,45.5521529 209.69198,45.5521529 L206.101555,45.5521529 C205.391807,45.5521529 204.961452,46.0044947 204.961452,46.6920092 L204.961452,59.0425153 Z M207.628077,57.8812797 C207.542457,57.8812797 207.499647,57.838521 207.499647,57.7541289 L207.499647,47.9590163 C207.499647,47.8723737 207.542457,47.829615 207.628077,47.829615 L209.56355,47.829615 C211.262439,47.829615 212.338327,48.4091076 212.788961,49.7852619 C212.960202,50.3850086 213.068354,51.2458082 213.068354,52.85601 C213.068354,54.4662117 212.960202,55.3270114 212.788961,55.9278833 C212.338327,57.3017871 211.262439,57.8812797 209.56355,57.8812797 L207.628077,57.8812797 Z M191.048132,55.0254502 C191.048132,58.420264 193.348618,60.3939145 196.42532,60.3939145 C199.522301,60.3939145 201.822787,58.420264 201.822787,55.0254502 L201.822787,46.7775266 C201.822787,45.9606108 201.284279,45.444131 200.555379,45.444131 C199.821973,45.444131 199.285718,45.9606108 199.285718,46.7775266 L199.285718,54.9826915 C199.285718,57.0024763 198.101678,58.1187028 196.42532,58.1187028 C194.768114,58.1187028 193.5852,57.0024763 193.5852,54.9826915 L193.5852,46.7775266 C193.5852,45.9606108 193.048946,45.444131 192.316666,45.444131 C191.587766,45.444131 191.048132,45.9606108 191.048132,46.7775266 L191.048132,55.0254502 Z M181.994898,47.829615 C182.080519,47.829615 182.123329,47.8723737 182.123329,47.9578911 L182.123329,58.9356186 C182.123329,59.7514091 182.661836,60.2667637 183.391863,60.2667637 C184.124143,60.2667637 184.661524,59.7514091 184.661524,58.9356186 L184.661524,47.9578911 C184.661524,47.8723737 184.704334,47.829615 184.789955,47.829615 L187.69429,47.829615 C188.489658,47.829615 188.984229,47.3570191 188.984229,46.690884 C188.984229,46.0247488 188.489658,45.5532781 187.69429,45.5532781 L179.09169,45.5532781 C178.296321,45.5532781 177.800624,46.0247488 177.800624,46.690884 C177.800624,47.3570191 178.296321,47.829615 179.09169,47.829615 L181.994898,47.829615 Z M166.469436,59.085274 C166.060486,58.8275967 165.82503,58.4405181 165.82503,57.9893016 C165.82503,57.3873044 166.297069,56.8291912 166.964007,56.8291912 C167.2434,56.8291912 167.523919,56.9147085 167.780781,57.0654891 C168.899479,57.7316243 169.93143,58.1187028 171.157155,58.1187028 C172.96307,58.1187028 173.995021,57.2804077 173.995021,56.0134007 C173.995021,54.9613122 173.393425,54.2524183 171.350927,53.994741 L170.598369,53.8867191 C167.65235,53.4996406 166.167511,52.1246116 166.167511,49.6986193 C166.167511,47.0565832 168.10411,45.3169802 171.092939,45.3169802 C172.683677,45.3169802 174.211325,45.7468174 175.072036,46.3049307 C175.52267,46.5626079 175.716442,46.9271819 175.716442,47.336765 C175.716442,47.9803956 175.243277,48.4529915 174.59887,48.4529915 C174.339756,48.4529915 174.040084,48.3674742 173.803502,48.2594523 C172.96307,47.8521196 172.08208,47.5933171 171.071534,47.5933171 C169.523607,47.5933171 168.748517,48.430487 168.748517,49.5478387 C168.748517,50.6010524 169.480797,51.244683 171.415142,51.5237396 L172.146296,51.6317616 C175.135125,52.0390942 176.576026,53.4141232 176.576026,55.906504 C176.576026,58.5046562 174.705896,60.3950398 171.028724,60.3950398 C169.050441,60.3950398 167.458577,59.7289046 166.469436,59.085274 Z" id="Fill-1"></path>
            </g>
        </g>
    </g>
</svg>